<?xml version="1.0" encoding="utf-8"?>
<!-- Generator: Adobe Illustrator 16.0.0, SVG Export Plug-In . SVG Version: 6.00 Build 0)  -->
<!DOCTYPE svg PUBLIC "-//W3C//DTD SVG 1.1//EN" "http://www.w3.org/Graphics/SVG/1.1/DTD/svg11.dtd">
<svg version="1.1" id="Layer_1" xmlns="http://www.w3.org/2000/svg" xmlns:xlink="http://www.w3.org/1999/xlink" x="0px" y="0px"
	 width="612px" height="792px" viewBox="0 0 612 792" enable-background="new 0 0 612 792" xml:space="preserve">
<g>
	<path fill="#0696A6" d="M224.041,468.375c0.704,0.068,1.402,0.117,2.1,0.15c0.696,0.033,1.391,0.049,2.078,0.049
		c2.415,0,4.32-0.107,5.712-0.326c1.393-0.217,2.543-0.57,3.452-1.055c0.334,0.568,0.581,1.119,0.741,1.646
		c0.161,0.529,0.238,1.063,0.238,1.6c0,0.807-0.292,1.369-0.881,1.688s-1.686,0.479-3.296,0.479c-0.572,0-1.654-0.027-3.248-0.078
		c-1.597-0.049-2.895-0.074-3.903-0.074c-1.424,0-2.86,0.033-4.304,0.1c-1.443,0.068-2.172,0.102-2.19,0.102
		c-0.571,0-0.972-0.135-1.207-0.404c-0.236-0.266-0.353-0.738-0.353-1.41c0-0.334,0.041-1.207,0.126-2.615
		c0.302-5.32,0.453-10.373,0.453-15.154c0-4.498-0.127-7.945-0.378-10.346c-0.252-2.4-0.664-4.127-1.234-5.186
		c0.772-0.42,1.506-0.738,2.202-0.957c0.697-0.219,1.372-0.328,2.025-0.328c0.94,0,1.582,0.24,1.926,0.719
		c0.344,0.479,0.517,1.465,0.517,2.957c0,0.438-0.043,1.596-0.127,3.475c-0.302,7.197-0.452,13.994-0.452,20.389v4.582H224.041z"/>
	<path fill="#0696A6" d="M248.204,471.422c-0.705,0.387-1.375,0.67-2.012,0.855c-0.639,0.184-1.252,0.275-1.839,0.275
		c-0.82,0-1.379-0.223-1.672-0.668c-0.295-0.443-0.442-1.338-0.442-2.68c0-0.773,0.075-2.5,0.228-5.186
		c0.149-2.686,0.228-4.994,0.228-6.924c0-2.096-0.101-3.801-0.304-5.109c-0.2-1.309-0.527-2.424-0.982-3.346
		c0.622-0.369,1.26-0.652,1.913-0.842c0.656-0.193,1.303-0.291,1.941-0.291c0.771,0,1.298,0.188,1.583,0.566
		c0.285,0.377,0.428,1.078,0.428,2.102c0,0.268-0.075,1.738-0.227,4.406c-0.149,2.668-0.226,5.199-0.226,7.6
		c0,2.25,0.112,4.111,0.34,5.59C247.387,469.248,247.732,470.465,248.204,471.422z M248.003,439.83c0,0.957-0.335,1.754-1.005,2.391
		c-0.673,0.639-1.521,0.959-2.544,0.959c-0.891,0-1.597-0.254-2.116-0.756c-0.521-0.504-0.779-1.184-0.779-2.041
		c0-0.938,0.336-1.74,1.005-2.402c0.672-0.666,1.485-0.994,2.442-0.994c0.872,0,1.59,0.27,2.152,0.805
		C247.723,438.328,248.003,439.008,248.003,439.83z"/>
	<path fill="#0696A6" d="M256.563,452.365c-0.287,0-0.68,0.014-1.186,0.039c-0.502,0.027-0.829,0.037-0.982,0.037
		c-0.689,0-1.171-0.096-1.445-0.289c-0.278-0.193-0.416-0.525-0.416-0.994c0-0.219,0.037-0.477,0.113-0.77
		c0.077-0.293,0.198-0.623,0.367-0.994c0.135,0,0.359,0.008,0.679,0.025s0.571,0.025,0.754,0.025c0.438,0,1.135-0.025,2.09-0.074
		c0.117,0,0.21-0.008,0.278-0.027c0-0.186,0.008-0.461,0.025-0.83c0.016-0.369,0.025-0.639,0.025-0.805
		c0-1.309-0.085-2.463-0.25-3.459c-0.169-1-0.43-1.879-0.781-2.631c0.722-0.355,1.366-0.623,1.939-0.807
		c0.569-0.186,1.057-0.277,1.46-0.277c0.688,0,1.187,0.213,1.496,0.643c0.311,0.428,0.466,1.129,0.466,2.102
		c0,0.42-0.077,1.736-0.227,3.953c-0.05,0.82-0.092,1.475-0.126,1.961c0.973-0.135,1.851-0.234,2.63-0.301
		c0.781-0.07,1.479-0.1,2.102-0.1c0.553,0,0.952,0.1,1.195,0.301c0.243,0.201,0.367,0.529,0.367,0.982
		c0,0.25-0.076,0.566-0.229,0.943c-0.149,0.379-0.367,0.801-0.652,1.27c-0.437-0.1-0.899-0.174-1.385-0.227
		c-0.487-0.049-1.075-0.074-1.763-0.074c-0.117,0-0.47,0.012-1.057,0.039c-0.585,0.023-1.089,0.043-1.51,0.063
		c-0.149,2.617-0.258,4.773-0.326,6.469c-0.066,1.695-0.101,3.078-0.101,4.154c0,2.332,0.205,3.965,0.616,4.896
		c0.412,0.93,1.103,1.396,2.077,1.396c0.269,0,0.549-0.051,0.842-0.15c0.294-0.1,0.592-0.262,0.894-0.479
		c0.152,0.334,0.262,0.629,0.328,0.881c0.066,0.252,0.1,0.479,0.1,0.678c0,0.824-0.34,1.5-1.02,2.027
		c-0.68,0.529-1.564,0.791-2.656,0.791c-1.811,0-3.16-0.6-4.04-1.799c-0.88-1.197-1.321-3.041-1.321-5.525
		c0-0.705,0.083-2.57,0.251-5.6C256.352,456.799,256.478,454.313,256.563,452.365z"/>
	<path fill="#0696A6" d="M289.41,467.242c0.369,0.453,0.642,0.879,0.817,1.27c0.176,0.396,0.265,0.779,0.265,1.146
		c0,0.904-0.675,1.65-2.026,2.229c-1.353,0.58-3.118,0.867-5.297,0.867c-4.011,0-7.154-1.094-9.428-3.283
		c-2.274-2.189-3.411-5.213-3.411-9.072c0-3.895,1.146-7.08,3.436-9.555c2.29-2.473,5.231-3.713,8.823-3.713
		c2.768,0,5.042,0.789,6.82,2.367c1.78,1.576,2.669,3.59,2.669,6.039c0,1.93-0.739,3.307-2.215,4.127
		c-1.476,0.824-3.987,1.234-7.527,1.234c-1.324,0-2.647-0.045-3.963-0.137c-1.318-0.094-2.622-0.232-3.915-0.416v0.354
		c0,2.615,0.772,4.689,2.316,6.215c1.544,1.529,3.641,2.291,6.293,2.291c1.241,0,2.39-0.162,3.449-0.49
		C287.573,468.387,288.536,467.896,289.41,467.242z M274.76,457.35c1.108,0.186,2.326,0.322,3.661,0.416
		c1.334,0.092,2.774,0.141,4.317,0.141c2.097,0,3.499-0.195,4.205-0.58c0.704-0.387,1.057-1.084,1.057-2.088
		c0-1.529-0.527-2.734-1.583-3.629c-1.059-0.887-2.502-1.332-4.33-1.332c-1.947,0-3.566,0.621-4.859,1.863
		C275.935,453.381,275.114,455.119,274.76,457.35z"/>
	<path fill="#0696A6" d="M301.516,452.744c1.26-1.762,2.46-3.076,3.599-3.941c1.143-0.861,2.266-1.295,3.375-1.295
		c0.938,0,1.74,0.299,2.404,0.893c0.662,0.6,0.992,1.332,0.992,2.203c0,0.572-0.189,1.131-0.566,1.674
		c-0.379,0.547-0.943,1.086-1.699,1.625c-0.271-0.738-0.6-1.285-0.996-1.637c-0.393-0.352-0.867-0.529-1.422-0.529
		c-0.821,0-1.686,0.408-2.592,1.221c-0.905,0.814-1.795,1.986-2.668,3.512c-0.085,0.756-0.15,1.523-0.202,2.303
		c-0.05,0.781-0.073,1.539-0.073,2.279c0,2.518,0.137,4.615,0.414,6.291c0.276,1.678,0.708,3.055,1.295,4.131
		c-0.669,0.352-1.329,0.619-1.975,0.805c-0.647,0.184-1.28,0.275-1.9,0.275c-0.823,0-1.391-0.203-1.698-0.617
		c-0.313-0.41-0.468-1.238-0.468-2.477c0-0.453,0.088-2.193,0.266-5.223c0.175-3.029,0.263-5.844,0.263-8.449
		c0-2.127-0.082-3.764-0.251-4.904c-0.169-1.145-0.445-2.148-0.832-3.021c0.335-0.119,0.668-0.207,0.995-0.266
		c0.328-0.059,0.668-0.088,1.02-0.088c0.973,0,1.695,0.23,2.165,0.691c0.471,0.463,0.707,1.172,0.707,2.125
		c0,0.221-0.013,0.518-0.039,0.896C301.604,451.598,301.566,452.107,301.516,452.744z"/>
	<path fill="#0696A6" d="M335.7,471.221c-0.654,0.418-1.252,0.736-1.788,0.955s-1.005,0.328-1.409,0.328
		c-0.723,0-1.245-0.225-1.574-0.668c-0.326-0.443-0.515-1.16-0.565-2.15c-1.259,1.074-2.504,1.871-3.736,2.389
		c-1.234,0.521-2.488,0.783-3.764,0.783c-2.52,0-4.549-0.705-6.093-2.115c-1.542-1.412-2.315-3.264-2.315-5.563
		c0-2.602,1.061-4.688,3.184-6.254c2.123-1.57,4.98-2.354,8.57-2.354c0.588,0,1.214,0.02,1.877,0.061
		c0.662,0.043,1.371,0.107,2.126,0.189c0.034-0.148,0.056-0.307,0.063-0.465c0.009-0.16,0.014-0.35,0.014-0.568
		c0-1.744-0.491-3.074-1.472-3.986c-0.983-0.916-2.404-1.371-4.269-1.371c-1.542,0-2.815,0.256-3.813,0.766
		c-0.999,0.514-1.808,1.309-2.43,2.379c-0.604-0.148-1.062-0.41-1.37-0.779c-0.313-0.371-0.468-0.848-0.468-1.436
		c0-1.223,0.776-2.234,2.329-3.033c1.553-0.797,3.578-1.195,6.076-1.195c3.072,0,5.375,0.742,6.912,2.229
		c1.535,1.484,2.303,3.703,2.303,6.656c0,0.557-0.025,1.52-0.076,2.896c-0.05,1.375-0.075,2.482-0.075,3.322
		c0,2.314,0.138,4.178,0.416,5.588C334.631,469.23,335.079,470.363,335.7,471.221z M330.163,460.018
		c-0.774-0.117-1.464-0.205-2.077-0.264s-1.137-0.09-1.573-0.09c-2.601,0-4.563,0.434-5.891,1.297
		c-1.326,0.865-1.989,2.154-1.989,3.865c0,1.377,0.461,2.461,1.384,3.248c0.922,0.787,2.198,1.184,3.827,1.184
		c1.225,0,2.37-0.232,3.436-0.693s2.043-1.152,2.933-2.074c-0.033-0.84-0.055-1.525-0.062-2.053
		c-0.008-0.527-0.012-1.035-0.012-1.523c0-0.303,0.008-0.775,0.025-1.424C330.179,460.844,330.179,460.354,330.163,460.018z"/>
	<path fill="#BCC831" d="M341.615,468.525c0.606,0.32,1.186,0.553,1.738,0.705c0.553,0.15,1.089,0.227,1.61,0.227
		c1.21,0,2.18-0.289,2.92-0.869c0.738-0.578,1.105-1.338,1.105-2.279c0-0.736-0.2-1.426-0.603-2.063s-1.158-1.41-2.265-2.314
		c-0.186-0.135-0.438-0.336-0.755-0.605c-2.837-2.35-4.256-4.43-4.256-6.244c0-0.734,0.144-1.475,0.43-2.213
		c0.285-0.74,0.704-1.445,1.258-2.115c1.059-1.258,2.295-2.217,3.712-2.883c1.42-0.662,2.947-0.994,4.595-0.994
		c0.807,0,1.418,0.156,1.836,0.467s0.628,0.76,0.628,1.346c0,0.285-0.075,0.625-0.225,1.02c-0.149,0.393-0.403,0.893-0.756,1.496
		c-0.453-0.186-0.881-0.322-1.284-0.414s-0.797-0.139-1.182-0.139c-1.394,0-2.522,0.338-3.387,1.02
		c-0.864,0.676-1.297,1.553-1.297,2.631c0,1.174,1.166,2.758,3.498,4.756c0.587,0.502,1.032,0.898,1.335,1.184
		c0.988,0.871,1.719,1.734,2.188,2.58c0.47,0.848,0.705,1.713,0.705,2.604c0,2.1-0.926,3.91-2.78,5.428
		c-1.854,1.518-4.106,2.277-6.758,2.277c-0.924,0-1.634-0.184-2.128-0.553c-0.493-0.369-0.742-0.889-0.742-1.563
		c0-0.318,0.068-0.668,0.203-1.055S341.314,469.098,341.615,468.525z"/>
	<path fill="#BCC831" d="M376.681,467.242c0.369,0.453,0.642,0.879,0.816,1.27c0.178,0.396,0.264,0.779,0.264,1.146
		c0,0.904-0.675,1.65-2.026,2.229c-1.352,0.58-3.116,0.867-5.298,0.867c-4.012,0-7.153-1.094-9.426-3.283
		c-2.276-2.189-3.412-5.213-3.412-9.072c0-3.895,1.146-7.08,3.438-9.555c2.291-2.473,5.231-3.713,8.82-3.713
		c2.768,0,5.042,0.789,6.823,2.367c1.775,1.576,2.668,3.59,2.668,6.039c0,1.93-0.738,3.307-2.215,4.127
		c-1.479,0.824-3.987,1.234-7.528,1.234c-1.326,0-2.646-0.045-3.964-0.137c-1.316-0.094-2.621-0.232-3.915-0.416v0.354
		c0,2.615,0.773,4.689,2.315,6.215c1.544,1.529,3.643,2.291,6.295,2.291c1.241,0,2.392-0.162,3.448-0.49
		C374.844,468.387,375.807,467.896,376.681,467.242z M362.03,457.35c1.107,0.186,2.329,0.322,3.662,0.416
		c1.334,0.092,2.772,0.141,4.316,0.141c2.098,0,3.5-0.195,4.204-0.58c0.704-0.387,1.06-1.084,1.06-2.088
		c0-1.529-0.531-2.734-1.588-3.629c-1.059-0.887-2.502-1.332-4.328-1.332c-1.947,0-3.567,0.621-4.858,1.863
		C363.204,453.381,362.382,455.119,362.03,457.35z"/>
	<path fill="#BCC831" d="M402.003,467.242c0.369,0.453,0.642,0.879,0.817,1.27c0.177,0.396,0.264,0.779,0.264,1.146
		c0,0.904-0.675,1.65-2.026,2.229c-1.352,0.58-3.115,0.867-5.299,0.867c-4.012,0-7.153-1.094-9.426-3.283
		c-2.274-2.189-3.411-5.213-3.411-9.072c0-3.895,1.146-7.08,3.437-9.555c2.292-2.475,5.231-3.713,8.822-3.713
		c2.769,0,5.043,0.789,6.822,2.367c1.776,1.576,2.667,3.59,2.667,6.039c0,1.93-0.737,3.307-2.215,4.127
		c-1.478,0.824-3.986,1.234-7.525,1.234c-1.326,0-2.647-0.045-3.966-0.137c-1.316-0.094-2.622-0.232-3.915-0.416v0.354
		c0,2.615,0.772,4.689,2.315,6.215c1.544,1.529,3.643,2.291,6.294,2.291c1.243,0,2.393-0.162,3.449-0.49
		C400.166,468.387,401.13,467.896,402.003,467.242z M387.355,457.35c1.105,0.186,2.327,0.322,3.66,0.416
		c1.334,0.092,2.773,0.141,4.318,0.141c2.096,0,3.499-0.195,4.203-0.58c0.704-0.387,1.058-1.084,1.058-2.088
		c0-1.529-0.529-2.734-1.586-3.629c-1.057-0.887-2.502-1.332-4.328-1.332c-1.947,0-3.568,0.621-4.859,1.863
		C388.526,453.381,387.706,455.119,387.355,457.35z"/>
</g>
<g>
	<path fill="#808083" d="M361.288,427.01c0,0-20.25-4.818-38.946-6.029c-16.968-1.1-61.012-0.447-61.012-0.447
		S326.928,423.889,361.288,427.01z"/>
	<path fill="#0696A6" d="M296.259,391.183c0,0,7.353-1.608,12.755,1.896l4.324-7.914l-12.708-33.702c0,0-8.351,9.492-9.661,19.756
		C290.968,371.219,288.662,381.538,296.259,391.183z"/>
	<path fill="#BCC831" d="M320.99,405.527c0,0-2.254-7.18-7.979-10.132l4.721-7.68l35.566-5.698c0,0-4.096,11.957-12.351,18.194
		C340.947,400.211,333.134,407.336,320.99,405.527z"/>
	<path fill="#0696A6" d="M316.78,378.68l7.177-12.354l-6.773-25.309c0,0-8.488,2.984-13.482,7.614L316.78,378.68z"/>
	<path fill="#BCC831" d="M321.407,381.315l6.966-12.475l25.224-7.085c0,0,1.762,8.823,0.327,15.481L321.407,381.315z"/>
	<polygon fill="#0696A6" points="320.861,339.707 327.459,359.508 345.157,331.731 	"/>
	<polygon fill="#BCC831" points="352.802,357.457 332.507,361.541 347.688,332.613 	"/>
	<path fill="#808083" d="M297.186,417.217l11.003-5.42c0,0,2.027-1.061-0.871-3.6c0,0-2.833-3.957-9.093-4.42
		c0,0-1.533-0.201-1.466,1.533l-0.002,11.906"/>
</g>
</svg>
