<?xml version="1.0" encoding="UTF-8"?>
<svg width="188px" height="143px" viewBox="0 0 188 143" version="1.1" xmlns="http://www.w3.org/2000/svg" xmlns:xlink="http://www.w3.org/1999/xlink">
    <!-- Generator: Sketch 42 (36781) - http://www.bohemiancoding.com/sketch -->
    <title>Literasee</title>
    <desc>Created with Sketch.</desc>
    <defs></defs>
    <g id="Page-1" stroke="none" stroke-width="1" fill="none" fill-rule="evenodd">
        <g id="Literasee" fill-rule="nonzero">
            <g id="Group" transform="translate(0.000000, 105.000000)">
                <path d="M7.041,32.375 C7.745,32.443 8.443,32.492 9.141,32.525 C9.837,32.558 10.532,32.574 11.219,32.574 C13.634,32.574 15.539,32.467 16.931,32.248 C18.324,32.031 19.474,31.678 20.383,31.193 C20.717,31.761 20.964,32.312 21.124,32.839 C21.285,33.368 21.362,33.902 21.362,34.439 C21.362,35.246 21.07,35.808 20.481,36.127 C19.892,36.446 18.795,36.606 17.185,36.606 C16.613,36.606 15.531,36.579 13.937,36.528 C12.34,36.479 11.042,36.454 10.034,36.454 C8.61,36.454 7.174,36.487 5.73,36.554 C4.287,36.622 3.558,36.656 3.54,36.656 C2.969,36.656 2.568,36.521 2.333,36.252 C2.097,35.986 1.98,35.514 1.98,34.842 C1.98,34.508 2.021,33.635 2.106,32.227 C2.408,26.907 2.559,21.854 2.559,17.073 C2.559,12.575 2.432,9.128 2.181,6.727 C1.929,4.327 1.517,2.6 0.947,1.541 C1.719,1.121 2.453,0.803 3.149,0.584 C3.846,0.365 4.521,0.256 5.174,0.256 C6.114,0.256 6.756,0.496 7.1,0.975 C7.444,1.454 7.617,2.44 7.617,3.932 C7.617,4.37 7.574,5.528 7.49,7.407 C7.188,14.604 7.038,21.401 7.038,27.796 L7.038,32.378 L7.041,32.378 L7.041,32.375 Z" id="Shape" fill="#0696A6"></path>
                <path d="M31.204,35.422 C30.499,35.809 29.829,36.092 29.192,36.277 C28.553,36.461 27.94,36.552 27.353,36.552 C26.533,36.552 25.974,36.329 25.681,35.884 C25.386,35.441 25.239,34.546 25.239,33.204 C25.239,32.431 25.314,30.704 25.467,28.018 C25.616,25.332 25.695,23.024 25.695,21.094 C25.695,18.998 25.594,17.293 25.391,15.985 C25.191,14.676 24.864,13.561 24.409,12.639 C25.031,12.27 25.669,11.987 26.322,11.797 C26.978,11.604 27.625,11.506 28.263,11.506 C29.034,11.506 29.561,11.694 29.846,12.072 C30.131,12.449 30.274,13.15 30.274,14.174 C30.274,14.442 30.199,15.912 30.047,18.58 C29.898,21.248 29.821,23.779 29.821,26.18 C29.821,28.43 29.933,30.291 30.161,31.77 C30.387,33.248 30.732,34.465 31.204,35.422 Z M31.003,3.83 C31.003,4.787 30.668,5.584 29.998,6.221 C29.325,6.86 28.477,7.18 27.454,7.18 C26.563,7.18 25.857,6.926 25.338,6.424 C24.817,5.92 24.559,5.24 24.559,4.383 C24.559,3.445 24.895,2.643 25.564,1.981 C26.236,1.315 27.049,0.987 28.006,0.987 C28.878,0.987 29.596,1.257 30.158,1.792 C30.723,2.328 31.003,3.008 31.003,3.83 Z" id="Shape" fill="#0696A6"></path>
                <path d="M39.563,16.365 C39.276,16.365 38.883,16.379 38.377,16.404 C37.875,16.431 37.548,16.441 37.395,16.441 C36.706,16.441 36.224,16.345 35.95,16.152 C35.672,15.959 35.534,15.627 35.534,15.158 C35.534,14.939 35.571,14.681 35.647,14.388 C35.724,14.095 35.845,13.765 36.014,13.394 C36.149,13.394 36.373,13.402 36.693,13.419 C37.013,13.436 37.264,13.444 37.447,13.444 C37.885,13.444 38.582,13.419 39.537,13.37 C39.654,13.37 39.747,13.362 39.815,13.343 C39.815,13.157 39.823,12.882 39.84,12.513 C39.856,12.144 39.865,11.874 39.865,11.708 C39.865,10.399 39.78,9.245 39.615,8.249 C39.446,7.249 39.185,6.37 38.834,5.618 C39.556,5.263 40.2,4.995 40.773,4.811 C41.342,4.625 41.83,4.534 42.233,4.534 C42.921,4.534 43.42,4.747 43.729,5.177 C44.04,5.605 44.195,6.306 44.195,7.279 C44.195,7.699 44.118,9.015 43.968,11.232 C43.918,12.052 43.876,12.707 43.842,13.193 C44.815,13.058 45.693,12.959 46.472,12.892 C47.253,12.822 47.951,12.792 48.574,12.792 C49.127,12.792 49.526,12.892 49.769,13.093 C50.012,13.294 50.136,13.622 50.136,14.075 C50.136,14.325 50.06,14.641 49.907,15.018 C49.758,15.397 49.54,15.819 49.255,16.288 C48.818,16.188 48.356,16.114 47.87,16.061 C47.383,16.012 46.795,15.987 46.107,15.987 C45.99,15.987 45.637,15.999 45.05,16.026 C44.465,16.049 43.961,16.069 43.54,16.089 C43.391,18.706 43.282,20.862 43.214,22.558 C43.148,24.253 43.113,25.636 43.113,26.712 C43.113,29.044 43.318,30.677 43.729,31.608 C44.141,32.538 44.832,33.004 45.806,33.004 C46.075,33.004 46.355,32.953 46.648,32.854 C46.942,32.754 47.24,32.592 47.542,32.375 C47.694,32.709 47.804,33.004 47.87,33.256 C47.936,33.508 47.97,33.735 47.97,33.934 C47.97,34.758 47.63,35.434 46.95,35.961 C46.27,36.49 45.386,36.752 44.294,36.752 C42.483,36.752 41.134,36.152 40.254,34.953 C39.374,33.756 38.933,31.912 38.933,29.428 C38.933,28.723 39.016,26.858 39.184,23.828 C39.352,20.799 39.478,18.313 39.563,16.365 Z" id="Shape" fill="#0696A6"></path>
                <path d="M72.41,31.242 C72.779,31.695 73.052,32.121 73.227,32.512 C73.403,32.908 73.492,33.291 73.492,33.658 C73.492,34.562 72.817,35.308 71.466,35.887 C70.113,36.467 68.348,36.754 66.169,36.754 C62.158,36.754 59.015,35.66 56.741,33.471 C54.467,31.282 53.33,28.258 53.33,24.399 C53.33,20.504 54.476,17.319 56.766,14.844 C59.056,12.371 61.997,11.131 65.589,11.131 C68.357,11.131 70.631,11.92 72.409,13.498 C74.189,15.074 75.078,17.088 75.078,19.537 C75.078,21.467 74.339,22.844 72.863,23.664 C71.387,24.488 68.876,24.898 65.336,24.898 C64.012,24.898 62.689,24.853 61.373,24.761 C60.055,24.667 58.751,24.529 57.458,24.345 L57.458,24.699 C57.458,27.314 58.23,29.388 59.774,30.914 C61.318,32.443 63.415,33.205 66.067,33.205 C67.308,33.205 68.457,33.043 69.516,32.715 C70.573,32.387 71.536,31.896 72.41,31.242 Z M57.76,21.35 C58.868,21.536 60.086,21.672 61.421,21.766 C62.755,21.858 64.195,21.907 65.738,21.907 C67.835,21.907 69.237,21.712 69.943,21.327 C70.647,20.94 71,20.243 71,19.239 C71,17.71 70.473,16.505 69.417,15.61 C68.358,14.723 66.915,14.278 65.087,14.278 C63.14,14.278 61.521,14.899 60.228,16.141 C58.935,17.381 58.114,19.119 57.76,21.35 Z" id="Shape" fill="#0696A6"></path>
                <path d="M84.516,16.744 C85.776,14.982 86.976,13.668 88.115,12.803 C89.258,11.942 90.381,11.508 91.49,11.508 C92.428,11.508 93.23,11.807 93.894,12.401 C94.556,13.001 94.886,13.733 94.886,14.604 C94.886,15.176 94.697,15.735 94.32,16.278 C93.941,16.825 93.377,17.364 92.621,17.903 C92.35,17.165 92.021,16.618 91.625,16.266 C91.232,15.914 90.758,15.737 90.203,15.737 C89.382,15.737 88.517,16.145 87.611,16.958 C86.706,17.772 85.816,18.944 84.943,20.47 C84.858,21.226 84.793,21.993 84.741,22.773 C84.691,23.554 84.668,24.312 84.668,25.052 C84.668,27.57 84.805,29.667 85.082,31.343 C85.358,33.021 85.79,34.398 86.377,35.474 C85.708,35.826 85.048,36.093 84.402,36.279 C83.755,36.463 83.122,36.554 82.502,36.554 C81.679,36.554 81.111,36.351 80.804,35.937 C80.491,35.527 80.336,34.699 80.336,33.46 C80.336,33.007 80.424,31.267 80.602,28.237 C80.777,25.208 80.865,22.393 80.865,19.788 C80.865,17.661 80.783,16.024 80.614,14.884 C80.445,13.739 80.169,12.736 79.782,11.863 C80.117,11.744 80.45,11.656 80.777,11.597 C81.105,11.538 81.445,11.509 81.797,11.509 C82.77,11.509 83.492,11.739 83.962,12.2 C84.433,12.663 84.669,13.372 84.669,14.325 C84.669,14.546 84.656,14.843 84.63,15.221 C84.604,15.598 84.566,16.107 84.516,16.744 Z" id="Shape" fill="#0696A6"></path>
                <path d="M118.7,35.221 C118.046,35.639 117.448,35.957 116.912,36.176 C116.376,36.395 115.907,36.504 115.503,36.504 C114.78,36.504 114.258,36.279 113.929,35.836 C113.603,35.393 113.414,34.676 113.364,33.686 C112.105,34.76 110.86,35.557 109.628,36.075 C108.394,36.596 107.14,36.858 105.864,36.858 C103.344,36.858 101.315,36.153 99.771,34.743 C98.229,33.331 97.456,31.479 97.456,29.18 C97.456,26.578 98.517,24.492 100.64,22.926 C102.763,21.356 105.62,20.572 109.21,20.572 C109.798,20.572 110.424,20.592 111.087,20.633 C111.749,20.676 112.458,20.74 113.213,20.822 C113.247,20.674 113.269,20.515 113.276,20.357 C113.285,20.197 113.29,20.007 113.29,19.789 C113.29,18.045 112.799,16.715 111.818,15.803 C110.835,14.887 109.414,14.432 107.549,14.432 C106.007,14.432 104.734,14.688 103.736,15.198 C102.737,15.712 101.928,16.507 101.306,17.577 C100.702,17.429 100.244,17.167 99.936,16.798 C99.623,16.427 99.468,15.95 99.468,15.362 C99.468,14.139 100.244,13.128 101.797,12.329 C103.35,11.532 105.375,11.134 107.873,11.134 C110.945,11.134 113.248,11.876 114.785,13.363 C116.32,14.847 117.088,17.066 117.088,20.019 C117.088,20.576 117.063,21.539 117.012,22.915 C116.962,24.29 116.937,25.397 116.937,26.237 C116.937,28.551 117.075,30.415 117.353,31.825 C117.631,33.23 118.079,34.363 118.7,35.221 Z M113.163,24.018 C112.389,23.901 111.699,23.813 111.086,23.754 C110.473,23.695 109.949,23.664 109.513,23.664 C106.912,23.664 104.95,24.098 103.622,24.961 C102.296,25.826 101.633,27.115 101.633,28.826 C101.633,30.203 102.094,31.287 103.017,32.074 C103.939,32.861 105.215,33.258 106.844,33.258 C108.069,33.258 109.214,33.026 110.28,32.565 C111.346,32.104 112.323,31.413 113.213,30.491 C113.18,29.651 113.158,28.966 113.151,28.438 C113.143,27.911 113.139,27.403 113.139,26.915 C113.139,26.612 113.147,26.14 113.164,25.491 C113.179,24.844 113.179,24.354 113.163,24.018 Z" id="Shape" fill="#0696A6"></path>
                <path d="M124.615,32.525 C125.221,32.845 125.801,33.078 126.353,33.23 C126.906,33.38 127.442,33.457 127.963,33.457 C129.173,33.457 130.143,33.168 130.883,32.588 C131.621,32.01 131.988,31.25 131.988,30.309 C131.988,29.573 131.788,28.883 131.385,28.246 C130.982,27.609 130.227,26.836 129.12,25.932 C128.934,25.797 128.682,25.596 128.365,25.327 C125.528,22.977 124.109,20.897 124.109,19.083 C124.109,18.349 124.253,17.608 124.539,16.87 C124.824,16.13 125.243,15.425 125.797,14.755 C126.856,13.497 128.092,12.538 129.509,11.872 C130.929,11.21 132.456,10.878 134.104,10.878 C134.911,10.878 135.522,11.034 135.94,11.345 C136.358,11.656 136.568,12.105 136.568,12.691 C136.568,12.976 136.493,13.316 136.343,13.711 C136.194,14.104 135.94,14.604 135.587,15.207 C135.134,15.021 134.706,14.885 134.303,14.793 C133.9,14.701 133.506,14.654 133.121,14.654 C131.727,14.654 130.599,14.992 129.734,15.674 C128.87,16.35 128.437,17.227 128.437,18.305 C128.437,19.479 129.603,21.063 131.935,23.061 C132.522,23.563 132.967,23.959 133.27,24.245 C134.258,25.116 134.989,25.979 135.458,26.825 C135.928,27.673 136.163,28.538 136.163,29.429 C136.163,31.529 135.237,33.339 133.383,34.857 C131.529,36.375 129.277,37.134 126.625,37.134 C125.701,37.134 124.991,36.95 124.497,36.581 C124.004,36.212 123.755,35.692 123.755,35.018 C123.755,34.7 123.823,34.35 123.958,33.963 C124.093,33.576 124.314,33.098 124.615,32.525 Z" id="Shape" fill="#BCC831"></path>
                <path d="M159.681,31.242 C160.05,31.695 160.323,32.121 160.497,32.512 C160.675,32.908 160.761,33.291 160.761,33.658 C160.761,34.562 160.086,35.308 158.735,35.887 C157.383,36.467 155.619,36.754 153.437,36.754 C149.425,36.754 146.284,35.66 144.011,33.471 C141.735,31.282 140.599,28.258 140.599,24.399 C140.599,20.504 141.745,17.319 144.037,14.844 C146.328,12.371 149.268,11.131 152.857,11.131 C155.625,11.131 157.899,11.92 159.68,13.498 C161.455,15.074 162.348,17.088 162.348,19.537 C162.348,21.467 161.61,22.844 160.133,23.664 C158.654,24.488 156.146,24.898 152.605,24.898 C151.279,24.898 149.959,24.853 148.641,24.761 C147.325,24.667 146.02,24.529 144.726,24.345 L144.726,24.699 C144.726,27.314 145.499,29.388 147.041,30.914 C148.585,32.443 150.684,33.205 153.336,33.205 C154.577,33.205 155.728,33.043 156.784,32.715 C157.844,32.387 158.807,31.896 159.681,31.242 Z M145.03,21.35 C146.137,21.536 147.359,21.672 148.692,21.766 C150.026,21.858 151.464,21.907 153.008,21.907 C155.106,21.907 156.508,21.712 157.212,21.327 C157.916,20.94 158.272,20.243 158.272,19.239 C158.272,17.71 157.741,16.505 156.684,15.61 C155.625,14.723 154.182,14.278 152.356,14.278 C150.409,14.278 148.789,14.899 147.498,16.141 C146.204,17.381 145.382,19.119 145.03,21.35 Z" id="Shape" fill="#BCC831"></path>
                <path d="M185.003,31.242 C185.372,31.695 185.645,32.121 185.82,32.512 C185.997,32.908 186.084,33.291 186.084,33.658 C186.084,34.562 185.409,35.308 184.058,35.887 C182.706,36.467 180.943,36.754 178.759,36.754 C174.747,36.754 171.606,35.66 169.333,33.471 C167.059,31.282 165.922,28.258 165.922,24.399 C165.922,20.504 167.068,17.319 169.359,14.844 C171.651,12.369 174.59,11.131 178.181,11.131 C180.95,11.131 183.224,11.92 185.003,13.498 C186.779,15.074 187.67,17.088 187.67,19.537 C187.67,21.467 186.933,22.844 185.455,23.664 C183.977,24.488 181.469,24.898 177.93,24.898 C176.604,24.898 175.283,24.853 173.964,24.761 C172.648,24.667 171.342,24.529 170.049,24.345 L170.049,24.699 C170.049,27.314 170.821,29.388 172.364,30.914 C173.908,32.443 176.007,33.205 178.658,33.205 C179.901,33.205 181.051,33.043 182.107,32.715 C183.166,32.387 184.13,31.896 185.003,31.242 Z M170.355,21.35 C171.46,21.536 172.682,21.672 174.015,21.766 C175.349,21.858 176.788,21.907 178.333,21.907 C180.429,21.907 181.832,21.712 182.536,21.327 C183.24,20.94 183.594,20.243 183.594,19.239 C183.594,17.71 183.065,16.505 182.008,15.61 C180.951,14.723 179.506,14.278 177.68,14.278 C175.733,14.278 174.112,14.899 172.821,16.141 C171.526,17.381 170.706,19.119 170.355,21.35 Z" id="Shape" fill="#BCC831"></path>
            </g>
            <g id="Group" transform="translate(44.000000, 0.000000)">
                <path d="M100.288,96.01 C100.288,96.01 80.038,91.192 61.342,89.981 C44.374,88.881 0.33,89.534 0.33,89.534 C0.33,89.534 65.928,92.889 100.288,96.01 Z" id="Shape" fill="#808083"></path>
                <path d="M35.259,60.183 C35.259,60.183 42.612,58.575 48.014,62.079 L52.338,54.165 L39.63,20.463 C39.63,20.463 31.279,29.955 29.969,40.219 C29.968,40.219 27.662,50.538 35.259,60.183 Z" id="Shape" fill="#0696A6"></path>
                <path d="M59.99,74.527 C59.99,74.527 57.736,67.347 52.011,64.395 L56.732,56.715 L92.298,51.017 C92.298,51.017 88.202,62.974 79.947,69.211 C79.947,69.211 72.134,76.336 59.99,74.527 Z" id="Shape" fill="#BCC831"></path>
                <path d="M55.78,47.68 L62.957,35.326 L56.184,10.017 C56.184,10.017 47.696,13.001 42.702,17.631 L55.78,47.68 Z" id="Shape" fill="#0696A6"></path>
                <path d="M60.407,50.315 L67.373,37.84 L92.597,30.755 C92.597,30.755 94.359,39.578 92.924,46.236 L60.407,50.315 Z" id="Shape" fill="#BCC831"></path>
                <polygon id="Shape" fill="#0696A6" points="59.861 8.707 66.459 28.508 84.157 0.731"></polygon>
                <polygon id="Shape" fill="#BCC831" points="91.802 26.457 71.507 30.541 86.688 1.613"></polygon>
                <path d="M36.186,86.217 L47.189,80.797 C47.189,80.797 49.216,79.736 46.318,77.197 C46.318,77.197 43.485,73.24 37.225,72.777 C37.225,72.777 35.692,72.576 35.759,74.31 L35.757,86.216" id="Shape" fill="#808083"></path>
            </g>
        </g>
    </g>
</svg>