<?xml version="1.0" encoding="utf-8"?>
<!-- Generator: Adobe Illustrator 16.0.0, SVG Export Plug-In . SVG Version: 6.00 Build 0)  -->
<!DOCTYPE svg PUBLIC "-//W3C//DTD SVG 1.1//EN" "http://www.w3.org/Graphics/SVG/1.1/DTD/svg11.dtd">
<svg version="1.1" id="Layer_1" xmlns="http://www.w3.org/2000/svg" xmlns:xlink="http://www.w3.org/1999/xlink" x="0px" y="0px"
	 width="612px" height="792px" viewBox="0 0 612 792" enable-background="new 0 0 612 792" xml:space="preserve">
<g>
	<path fill="#808083" d="M380.228,427.629c0,0-25.997-6.186-50.003-7.739c-21.783-1.413-78.329-0.574-78.329-0.574
		S336.113,423.622,380.228,427.629z"/>
	<path fill="#0696A6" d="M296.741,381.634c0,0,9.438-2.066,16.375,2.436l5.553-10.161l-16.315-43.268
		c0,0-10.721,12.186-12.404,25.363C289.948,356.003,286.985,369.25,296.741,381.634z"/>
	<path fill="#BCC831" d="M328.49,400.051c0,0-2.893-9.221-10.245-13.009l6.063-9.859l45.661-7.316c0,0-5.257,15.354-15.856,23.359
		C354.112,393.226,344.082,402.371,328.49,400.051z"/>
	<path fill="#0696A6" d="M323.086,365.583l9.213-15.863l-8.696-32.493c0,0-10.896,3.832-17.309,9.775L323.086,365.583z"/>
	<path fill="#BCC831" d="M329.025,368.966l8.941-16.017l32.385-9.097c0,0,2.262,11.327,0.421,19.875L329.025,368.966z"/>
	<polygon fill="#0696A6" points="328.326,315.547 336.795,340.969 359.519,305.308 	"/>
	<polygon fill="#BCC831" points="369.332,338.334 343.278,343.578 362.767,306.438 	"/>
	<path fill="#808083" d="M297.93,415.059l14.125-6.958c0,0,2.603-1.359-1.114-4.62c0,0-3.639-5.079-11.675-5.674
		c0,0-1.969-0.259-1.885,1.965l-0.003,15.287"/>
</g>
</svg>
